# xmcd
#
# Track frame offsets:
#	150
#	14912
#	30417
#	43820
#	63324
#	78243
#	91763
#	109172
#	122433
#	138724
#
# Disc length: 2051 seconds
# Revision: 0
# Processed by: cddbd v1.5.2PL0 Copyright (c) Steve Scherf et al.
# Submitted via: dBpowerAMP V12.0
#
DISCID=7f08010a
DTITLE=Colebrook Road - On Time
DYEAR=2019
DGENRE=Country
TTITLE0=On Time
TTITLE1=Caged Bird
TTITLE2=Velvet
TTITLE3=Boy in the Bubble
TTITLE4=To Love Again
TTITLE5=Farther On Down the Line
TTITLE6=Mabon
TTITLE7=Cora Leigh
TTITLE8=Evening Rain
TTITLE9=Better Off Today
EXTD=
EXTT0=
EXTT1=
EXTT2=
EXTT3=
EXTT4=
EXTT5=
EXTT6=
EXTT7=
EXTT8=
EXTT9=
PLAYORDER=
